<svg width="21" height="21" viewBox="0 0 21 21" fill="none" xmlns="http://www.w3.org/2000/svg">
<g clip-path="url(#clip0_187_202)">
<path d="M2.72222 3.27777C2.13285 3.27777 1.56762 3.5119 1.15087 3.92864C0.734126 4.34539 0.5 4.91062 0.5 5.49999L0.5 15.5C0.5 16.0894 0.734126 16.6546 1.15087 17.0713C1.56762 17.4881 2.13285 17.7222 2.72222 17.7222H7.16667V3.27777H2.72222Z" fill="#009A49"/>
<path d="M7.16669 3.27777H13.8334V17.7222H7.16669V3.27777Z" fill="#EEEEEE"/>
<path d="M18.2778 3.27777H13.8333V17.7222H18.2778C18.8671 17.7222 19.4324 17.4881 19.8491 17.0713C20.2659 16.6546 20.5 16.0894 20.5 15.5V5.49999C20.5 4.91062 20.2659 4.34539 19.8491 3.92864C19.4324 3.5119 18.8671 3.27777 18.2778 3.27777Z" fill="#009A49"/>
</g>
<defs>
<clipPath id="clip0_187_202">
<rect width="20" height="20" fill="white" transform="translate(0.5 0.5)"/>
</clipPath>
</defs>
</svg>
