<svg width="20" height="21" viewBox="0 0 20 21" fill="none" xmlns="http://www.w3.org/2000/svg">
<path d="M9.99999 2.16666C8.35182 2.16666 6.74065 2.6554 5.37024 3.57108C3.99983 4.48675 2.93173 5.78824 2.301 7.31096C1.67027 8.83368 1.50524 10.5092 1.82678 12.1257C2.14833 13.7423 2.942 15.2271 4.10744 16.3925C5.27287 17.558 6.75773 18.3517 8.37424 18.6732C9.99075 18.9947 11.6663 18.8297 13.189 18.199C14.7117 17.5683 16.0132 16.5002 16.9289 15.1297C17.8446 13.7593 18.3333 12.1482 18.3333 10.5C18.3333 9.40564 18.1178 8.32201 17.699 7.31096C17.2802 6.29991 16.6664 5.38125 15.8925 4.60743C15.1187 3.83361 14.2001 3.21978 13.189 2.80099C12.178 2.3822 11.0943 2.16666 9.99999 2.16666ZM8.57416 16.9942C7.66533 16.7866 6.81022 16.3904 6.06422 15.8313C5.31822 15.2722 4.69795 14.5627 4.24357 13.7487C3.78919 12.9347 3.51084 12.0343 3.42653 11.1059C3.34222 10.1775 3.45384 9.2417 3.75416 8.35916L3.96416 8.37582C4.40841 8.58774 4.80163 8.89314 5.11691 9.27113C5.43218 9.64911 5.66207 10.0908 5.79083 10.5658C5.92932 11.1145 6.1954 11.6228 6.56741 12.0492C6.93941 12.4757 7.40684 12.8083 7.93166 13.02C8.93833 13.4842 9.14916 14.7858 8.57416 16.9942ZM11.7325 9.24999C11.7324 9.18342 11.7243 9.11711 11.7083 9.05249C11.5575 8.36928 11.2585 7.72752 10.8324 7.17256C10.4063 6.6176 9.86357 6.16298 9.24249 5.84082C8.51333 5.37832 8.06083 5.09082 7.93916 4.18166C9.23657 3.74453 10.6372 3.71801 11.9502 4.10573C13.2632 4.49345 14.4248 5.27655 15.2767 6.34832C14.06 6.53082 13.3992 8.31082 13.3992 9.24916C13.3102 9.38675 13.1859 9.49798 13.0394 9.57126C12.8928 9.64454 12.7293 9.67719 12.5658 9.66582C12.4024 9.67728 12.239 9.64475 12.0924 9.57162C11.9459 9.49849 11.8216 9.38743 11.7325 9.24999ZM13.1592 16.3108L12.57 14.545C12.5984 14.1438 12.771 13.7664 13.0559 13.4824C13.3408 13.1985 13.7187 13.0271 14.12 13L15.9025 13.5425C15.2864 14.7195 14.3306 15.6841 13.1592 16.3108Z" fill="white"/>
</svg>
