<svg width="25" height="25" viewBox="0 0 25 25" fill="none" xmlns="http://www.w3.org/2000/svg">
<path d="M19.3419 14.4985C19.5708 14.4986 19.7935 14.4277 19.9762 14.2967C20.159 14.1657 20.2918 13.9817 20.3545 13.7726L22.4597 6.77346C22.5043 6.62466 22.512 6.46806 22.4821 6.31596C22.4522 6.16387 22.3856 6.02045 22.2874 5.89697C22.1893 5.7735 22.0623 5.67335 21.9165 5.6044C21.7707 5.53545 21.61 5.49958 21.4471 5.49962H7.52098L6.89467 3.24491C6.8354 3.03141 6.7034 2.84256 6.51927 2.70781C6.33514 2.57306 6.10923 2.49999 5.87679 2.5H3.55262C3.27345 2.5 3.00571 2.60534 2.8083 2.79286C2.6109 2.98037 2.5 3.23469 2.5 3.49987C2.5 3.76506 2.6109 4.01938 2.8083 4.20689C3.00571 4.39441 3.27345 4.49975 3.55262 4.49975H5.06628L5.69785 6.75447V6.76447V6.77346L7.80308 13.7726L8.58833 16.7582C8.06848 16.9772 7.62052 17.3254 7.29175 17.7661C6.96297 18.2069 6.76559 18.7237 6.72044 19.2622C6.67529 19.8007 6.78404 20.3407 7.03523 20.8253C7.28641 21.31 7.67069 21.7211 8.1475 22.0155C8.62431 22.3099 9.17595 22.4764 9.74417 22.4977C10.3124 22.5189 10.8761 22.394 11.3758 22.1362C11.8755 21.8783 12.2926 21.497 12.5831 21.0327C12.8736 20.5683 13.0266 20.038 13.0262 19.4979C13.0227 19.1565 12.9572 18.8182 12.8325 18.498H15.3251C15.2004 18.8182 15.1349 19.1565 15.1314 19.4979C15.1314 20.0911 15.3166 20.6711 15.6636 21.1644C16.0106 21.6577 16.5038 22.0421 17.0808 22.2692C17.6578 22.4962 18.2928 22.5556 18.9053 22.4399C19.5179 22.3241 20.0806 22.0384 20.5222 21.6189C20.9638 21.1994 21.2646 20.6649 21.3864 20.0831C21.5083 19.5012 21.4457 18.8981 21.2067 18.35C20.9677 17.8019 20.563 17.3334 20.0437 17.0038C19.5243 16.6742 18.9138 16.4982 18.2892 16.4982H10.6894L10.163 14.4985H19.3419ZM20.0513 7.49937L18.5482 12.4987H9.60937L8.10624 7.49937H20.0513ZM10.9209 19.4979C10.9209 19.6956 10.8592 19.8889 10.7435 20.0534C10.6279 20.2178 10.4635 20.346 10.2711 20.4216C10.0788 20.4973 9.86715 20.5171 9.66296 20.4785C9.45877 20.44 9.27121 20.3447 9.124 20.2049C8.97679 20.0651 8.87654 19.8869 8.83593 19.6929C8.79531 19.499 8.81615 19.2979 8.89583 19.1152C8.9755 18.9325 9.11041 18.7764 9.28351 18.6665C9.45662 18.5566 9.66013 18.498 9.86832 18.498C10.1475 18.498 10.4152 18.6033 10.6126 18.7909C10.81 18.9784 10.9209 19.2327 10.9209 19.4979ZM18.2892 20.4977C18.0811 20.4977 17.8775 20.4391 17.7044 20.3292C17.5313 20.2194 17.3964 20.0632 17.3168 19.8805C17.2371 19.6978 17.2162 19.4968 17.2569 19.3028C17.2975 19.1088 17.3977 18.9307 17.5449 18.7909C17.6921 18.651 17.8797 18.5558 18.0839 18.5172C18.2881 18.4786 18.4997 18.4984 18.6921 18.5741C18.8844 18.6498 19.0488 18.7779 19.1645 18.9424C19.2801 19.1068 19.3419 19.3001 19.3419 19.4979C19.3419 19.7631 19.231 20.0174 19.0336 20.2049C18.8362 20.3924 18.5684 20.4977 18.2892 20.4977Z" fill="white"/>
</svg>
