<svg width="25" height="25" viewBox="0 0 25 25" fill="none" xmlns="http://www.w3.org/2000/svg">
<g clip-path="url(#clip0_140_171)">
<path d="M11.9375 4.43751L12.4578 5.00001L13.0203 4.43844C14.5906 2.90797 16.7656 2.21141 18.9031 2.56719C22.1328 3.10532 24.5 5.90001 24.5 9.17657V9.44844C24.5 11.3938 23.6938 13.2547 22.2687 14.5813L13.7984 22.4891C13.4469 22.8172 12.9828 23 12.5 23C12.0172 23 11.5531 22.8172 11.2016 22.4891L2.73078 14.5813C1.30766 13.2547 0.5 11.3938 0.5 9.44844V9.17657C0.5 5.90001 2.86813 3.10532 6.09688 2.56719C8.19219 2.21141 10.4094 2.90797 11.9375 4.43751C11.9375 4.43797 11.8953 4.43751 11.9375 4.43751ZM12.4578 8.18282L10.3484 5.98907C9.33125 5.01313 7.8875 4.55001 6.46719 4.78626C4.32266 5.14391 2.75 7.00157 2.75 9.17657V9.44844C2.75 10.7703 3.29891 12.0359 4.26594 12.9359L12.5 20.6234L20.7359 12.9359C21.7016 12.0359 22.25 10.7703 22.25 9.44844V9.17657C22.25 7.00157 20.675 5.14391 18.5328 4.78626C17.1125 4.55001 15.6687 5.01313 14.6516 5.98907L12.4578 8.18282Z" fill="white"/>
</g>
<defs>
<clipPath id="clip0_140_171">
<rect width="24" height="24" fill="white" transform="translate(0.5 0.5)"/>
</clipPath>
</defs>
</svg>
