<svg width="24" height="25" viewBox="0 0 24 25" fill="none" xmlns="http://www.w3.org/2000/svg">
<path d="M12 16.6975L11.697 16.3945L4.22286 8.92038C4.22285 8.92037 4.22283 8.92035 4.22282 8.92034C4.18264 8.88023 4.1282 8.85771 4.07143 8.85771C4.01464 8.85771 3.96018 8.88025 3.92 8.92038L3.61714 8.61714L3.92038 8.92C3.88025 8.96018 3.85771 9.01464 3.85771 9.07143C3.85771 9.12819 3.88023 9.18263 3.92032 9.2228C3.92034 9.22282 3.92036 9.22284 3.92038 9.22286L11.8486 17.1511L12 16.6975ZM12 16.6975L12.303 16.3945M12 16.6975L12.303 16.3945M12.303 16.3945L19.7773 8.92019L19.7827 8.91484M12.303 16.3945L19.7827 8.91484M19.7827 8.91484L19.7878 8.90931M19.7827 8.91484L19.7878 8.90931M19.7878 8.90931C19.8075 8.88826 19.8311 8.87137 19.8574 8.85966C19.8837 8.84795 19.9121 8.84165 19.9408 8.84114C19.9696 8.84063 19.9982 8.84593 20.0249 8.8567C20.0515 8.86748 20.0758 8.88352 20.0961 8.90387C20.1165 8.92422 20.1325 8.94846 20.1433 8.97514C20.1541 9.00182 20.1594 9.0304 20.1589 9.05918C20.1584 9.08795 20.1521 9.11632 20.1403 9.1426L20.5318 9.31703M19.7878 8.90931L20.5318 9.31703M20.5318 9.31703L20.1403 9.14261C20.1286 9.16889 20.1117 9.19255 20.0907 9.21217L20.0852 9.21732M20.5318 9.31703L20.0852 9.21732M20.0852 9.21732L20.0798 9.22267M20.0852 9.21732L20.0798 9.22267M20.0798 9.22267L12.1514 17.1511L20.0798 9.22267ZM12 17.2137C12.0567 17.2137 12.1111 17.1913 12.1512 17.1512L12 17.2137ZM12 17.2137C11.9433 17.2137 11.8889 17.1913 11.8488 17.1512L12 17.2137Z" stroke="white" stroke-width="0.857143"/>
</svg>
